<?xml version="1.0" encoding="UTF-8"?>
<svg xmlns="http://www.w3.org/2000/svg" xmlns:xlink="http://www.w3.org/1999/xlink" id="Layer_2" data-name="Layer 2" viewBox="0 0 1447.21 352.67">
  <defs>
    <style>
      .cls-1 {
        fill: #fff;
      }

      .cls-2 {
        fill: purple;
      }

      .cls-3 {
        fill: #f11878;
      }

      .cls-4 {
        fill: url(#linear-gradient);
      }
    </style>
    <linearGradient id="linear-gradient" x1="46.33" y1="559.01" x2="356.88" y2="559.01" gradientTransform="translate(0 -365.3)" gradientUnits="userSpaceOnUse">
      <stop offset="0" stop-color="#ec1e77"></stop>
      <stop offset=".1" stop-color="#dc1f78"></stop>
      <stop offset="1" stop-color="#7d277d"></stop>
    </linearGradient>
  </defs>
  <g id="Layer_1-2" data-name="Layer 1">
    <g>
      <g>
        <path class="cls-4" d="M71.87,225.04s7.26,75.01,81.67,109.49c0,0,65.94,36.9,140.35-11.49,0,0,81.06-55.05,59.28-148.21,0,0-10.28-94.98-121.59-111.91,0,0-.48-24.32-24.32-23.47,0,0-26.86-1.45-19.96,34.97,0,0,2.18,12.58-15.61,21.05,0,0-5.81,5.08-18.87,1.45,0,0-5.32-1.81-9.8-7.86,0,0-20.69-30.73-51.06-10.16,0,0-25.89,18.87-6.53,47.31,0,0,3.02,4.6,4.84,5.81,0,0,17.54,13.91.73,37.75,0,0-6.78,10.77-24.92,9.92,0,0-13.55,1.21-19.12,15.97,0,0-2.66,13.55,3.15,19.96,0,0,5.57,9.68,21.78,9.2v.24Z"></path>
        <circle class="cls-3" cx="158.86" cy="61.7" r="18.27"></circle>
        <circle class="cls-3" cx="69.21" cy="148.69" r="18.27"></circle>
        <circle class="cls-3" cx="18.03" cy="125.34" r="18.03"></circle>
        <circle class="cls-3" cx="81.91" cy="55.41" r="12.7"></circle>
        <circle class="cls-3" cx="199.03" cy="12.58" r="12.58"></circle>
        <circle class="cls-3" cx="142.77" cy="12.1" r="7.26"></circle>
        <circle class="cls-3" cx="102.23" cy="12.58" r="7.26"></circle>
        <circle class="cls-3" cx="51.06" cy="19.84" r="7.26"></circle>
        <circle class="cls-3" cx="30.37" cy="68.96" r="7.26"></circle>
        <path class="cls-1" d="M126.8,278.88l84.33-167.57,84.69,167.57h-26.86s-19.48-1.21-26.5-23.83l-31.09-60.01-21.54,44.52,30.25.97s2.78,29.64-29.4,38.35h-63.88Z"></path>
      </g>
      <g>
        <path class="cls-2" d="M405.91,192.97v72.2c0,2.9.7,5.2,2,6.7s3.7,2.7,7.2,3.7v4.5h-40.8v-4.5c3.4-.9,5.8-2.2,7.2-3.7,1.3-1.5,2-3.7,2-6.7V101.07c0-2.8-.7-5-2-6.5s-3.7-2.7-7.2-3.7v-4.5h102.9c14.4,0,25.6.8,33.7,2.3,8,1.5,15.2,4.3,21.5,8.2,6.6,4,11.9,9.4,15.9,16.3,4.5,7.8,6.7,16.5,6.7,26.1s-4.1,24.6-12.3,34.1c-6.3,7.3-14.3,12.4-24,15.3s-23.5,4.3-41.5,4.3h-71.3ZM405.91,174.57h73.3c10.9,0,19-.4,24.3-1.3s10.1-2.5,14.3-5c9.7-5.7,14.6-15.2,14.6-28.5s-4.9-23-14.6-28.7c-4.2-2.5-8.9-4.1-14.2-5s-13.4-1.3-24.4-1.3h-73.3v69.7h0v.1Z"></path>
        <path class="cls-2" d="M608.31,137.27v81.6c0,12.6.6,21.3,1.9,26,1.2,4.8,4,8.8,8.2,12,8.6,6.8,23.3,10.2,44.1,10.2s38.6-4.2,46.7-12.5c3-3.1,4.9-7,5.9-11.6s1.4-12.7,1.4-24.2v-81.6c0-3.9-.6-6.6-1.9-8.3-1.2-1.7-3.7-3-7.3-3.9v-3.8h35.4v3.8c-3.6.9-6.1,2.2-7.3,3.8-1.2,1.6-1.9,4.4-1.9,8.4v85.7c0,14.6-1.2,24.8-3.7,30.8-4.2,10.2-11.9,17.7-23.1,22.6-11.2,4.8-26.6,7.2-46.1,7.2-28.1,0-47.8-5.2-59-15.5-5.4-4.9-9.1-10.5-11-16.6s-2.8-15.7-2.8-28.5v-85.7c0-4-.6-6.8-1.9-8.4-1.2-1.6-3.7-2.9-7.3-3.8v-3.8h38.8v3.8c-3.6.9-6.1,2.2-7.3,3.9-1.2,1.7-1.9,4.4-1.9,8.3l.1.1Z"></path>
        <path class="cls-2" d="M803.71,208.17v55.9c0,3.9.6,6.6,1.9,8.3,1.2,1.7,3.7,3,7.3,3.9v3.8h-38.8v-3.8c3.7-.9,6.2-2.2,7.4-3.9,1.2-1.7,1.8-4.4,1.8-8.3v-126.9c0-4-.6-6.8-1.9-8.4-1.2-1.6-3.7-2.9-7.3-3.8v-3.8h95.3c10.8,0,19.6.8,26.4,2.3,6.8,1.5,12.8,4.1,17.8,7.7,11.1,7.8,16.6,19.1,16.6,34.1s-3.9,21.8-11.6,28.9c-7.7,7-19.1,11.3-34.1,12.7l40.3,63.3c1.4,2.2,2.8,3.6,4.2,4.4s3.8,1.4,7.4,1.8v3.8h-39.7v-3.8c3.7-.8,5.6-1.9,5.6-3.5s-1.1-3.4-3.3-6.8l-36.9-57.8h-58.3l-.1-.1ZM803.71,192.77h61c9.8,0,17.2-.4,22.1-1.1,4.9-.7,9.1-2,12.5-3.9,7.5-4.2,11.3-11.4,11.3-21.7s-3.5-17.4-10.6-22.4c-6.5-4.6-17.5-7-33.1-7h-63.3v56.1h.1Z"></path>
        <path class="cls-2" d="M991.51,208.77v56.6c0,2.8.6,5,1.9,6.5s3.6,2.7,6.8,3.7v4.5h-38.4v-4.5c3.4-.9,5.8-2.2,7.2-3.7,1.3-1.5,2-3.7,2-6.5v-130.4c0-2.7-.7-4.8-2.1-6.2-1.4-1.4-3.8-2.5-7.1-3.3v-4.3h88.8c11.8,0,20.8.5,26.9,1.6,6.1,1,11.5,3,16.4,6,5.8,3.4,10.4,8.4,13.8,14.8,3.3,6.5,5,13.6,5,21.5s-1.6,14.9-4.9,21.3c-3.3,6.3-7.9,11.3-14,14.8-5,3-10.5,5.1-16.5,6.1s-14.9,1.6-26.6,1.6h-59.2v-.1ZM991.51,193.27h56.4c10.2,0,17.8-.4,22.6-1.2,4.9-.8,9-2.3,12.5-4.6,6.7-4.4,10-11.9,10-22.6s-3.3-18-10-22.4c-3.4-2.3-7.6-3.8-12.4-4.6-4.8-.8-12.4-1.2-22.7-1.2h-56.4v56.6h0Z"></path>
        <path class="cls-2" d="M1167.61,264.67h97.8c4,0,6.8-.6,8.5-1.8,1.7-1.2,3-3.6,3.9-7.3h3.9v33.6h-3.9c-1-3.6-2.3-6-3.9-7.2-1.7-1.2-4.5-1.8-8.5-1.8h-127.5v-3.8c3.6-.9,6.1-2.2,7.3-3.9,1.2-1.7,1.9-4.4,1.9-8.3v-126.9c0-4-.6-6.8-1.9-8.4-1.2-1.6-3.7-2.9-7.3-3.8v-3.8h38.8v3.8c-3.6.9-6.1,2.2-7.3,3.8-1.2,1.6-1.9,4.4-1.9,8.4v127.4h.1Z"></path>
        <path class="cls-2" d="M1331.81,205.77v58.9h99.1c4,0,6.8-.6,8.5-1.8,1.7-1.2,2.9-3.6,3.8-7.3h4v33.6h-4c-.9-3.6-2.1-6-3.7-7.2s-4.4-1.8-8.5-1.8h-128.9v-3.8c3.7-.9,6.2-2.2,7.4-3.9,1.2-1.7,1.8-4.4,1.8-8.3v-126.9c0-4-.6-6.8-1.9-8.4-1.2-1.6-3.7-2.9-7.3-3.8v-3.8h127.9c4,0,6.8-.6,8.5-1.8,1.6-1.2,2.9-3.6,3.9-7.2h3.9v33.6h-3.9c-1-3.6-2.2-6.1-3.9-7.3-1.6-1.2-4.4-1.8-8.5-1.8h-98.3v53.6h62.6c4,0,6.8-.6,8.5-1.8,1.6-1.2,2.9-3.6,3.9-7.2h3.9v33.6h-3.9c-1-3.6-2.3-6.1-3.9-7.3-1.7-1.2-4.5-1.8-8.4-1.8h-62.6v-.1Z"></path>
      </g>
      <g>
        <path d="M406.81,312.27l-4.3,7.7-.8-.5c.3-.9.5-1.5.5-1.7,0-.6-.7-1.2-2.2-1.9-4-1.9-8.3-2.8-12.8-2.8s-6.9.7-9.7,2.1c-1.3.7-2.4,1.6-3.1,2.6s-1.2,2.2-1.2,3.4.3,1.9.9,2.8,1.4,1.6,2.4,2c1.1.5,2.4.8,3.8,1,1.5.2,3.9.3,7.2.4,4.6.1,7.9.4,9.9.6s3.6.8,4.9,1.5c3.4,1.9,5.1,4.8,5.1,8.7s-1.5,6.7-4.6,9.1c-3.4,2.6-8.1,4-14.1,4s-6.5-.4-9.1-1.1-5.7-2-9.2-3.9c-1-.5-1.6-.7-1.8-.7-.3,0-.8.4-1.4,1.1l-.8-.5,4.5-7.5.8.5c-.4.8-.6,1.3-.6,1.6,0,.6,1.3,1.6,3.8,3,2.3,1.2,4.5,2.1,6.6,2.6s4.4.8,6.9.8c5.1,0,8.9-1.1,11.5-3.3,1.7-1.5,2.6-3.2,2.6-5.3s-1.5-4.5-4.5-5.6c-1-.3-2-.6-3-.6s-4-.2-8.8-.4c-3.4-.1-6.1-.4-8.1-.8s-3.7-1-5.2-1.9c-1.4-.8-2.5-1.9-3.4-3.4s-1.2-3-1.2-4.7c0-2.9,1.1-5.4,3.2-7.5,1.6-1.5,3.8-2.7,6.6-3.6s5.9-1.3,9.3-1.3,5.3.3,7.6.8,5,1.5,8,2.8c.7.3,1.1.4,1.2.4.4,0,.9-.4,1.5-1.2l.8.4.3.3Z"></path>
        <path d="M439.01,320.57v26.8c0,.8.1,1.4.4,1.8s.8.6,1.5.8v.8h-8.1v-.8c.8-.2,1.3-.5,1.5-.8s.4-.9.4-1.8v-26.8h-11c-.8,0-1.4.1-1.8.4s-.6.8-.8,1.5h-.8v-7.1h.8c.2.8.5,1.3.8,1.5s.9.4,1.8.4h26.2c.8,0,1.4-.1,1.8-.4s.6-.8.8-1.5h.8v7.1h-.8c-.2-.8-.5-1.3-.8-1.5s-.9-.4-1.8-.4h-10.9Z"></path>
        <path d="M474.31,334.97v12.5h20.8c.8,0,1.4-.1,1.8-.4s.6-.8.8-1.5h.8v7.1h-.8c-.2-.8-.4-1.3-.8-1.5s-.9-.4-1.8-.4h-27v-.8c.8-.2,1.3-.5,1.5-.8s.4-.9.4-1.8v-26.8c0-.8-.1-1.4-.4-1.8s-.8-.6-1.5-.8v-.8h26.8c.8,0,1.4-.1,1.8-.4s.6-.8.8-1.5h.8v7.1h-.8c-.2-.8-.5-1.3-.8-1.5s-.9-.4-1.8-.4h-20.6v11.3h13.1c.8,0,1.4-.1,1.8-.4s.6-.8.8-1.5h.8v7.1h-.8c-.2-.8-.5-1.3-.8-1.5s-.9-.4-1.8-.4h-13.1v-.1Z"></path>
        <path d="M521.01,335.57v12c0,.6.1,1.1.4,1.4s.7.6,1.4.8v1h-8v-1c.7-.2,1.2-.5,1.5-.8s.4-.8.4-1.4v-27.6c0-.6-.1-1-.4-1.3s-.8-.5-1.5-.7v-.9h18.6c2.5,0,4.4.1,5.6.3s2.4.6,3.4,1.3c1.2.7,2.2,1.8,2.9,3.1s1.1,2.9,1.1,4.5-.3,3.2-1,4.5-1.7,2.4-2.9,3.1c-1,.6-2.2,1.1-3.5,1.3s-3.1.3-5.6.3h-12.4v.1ZM521.01,332.37h11.8c2.1,0,3.7,0,4.7-.3s1.9-.5,2.6-1c1.4-.9,2.1-2.5,2.1-4.8s-.7-3.8-2.1-4.7c-.7-.5-1.6-.8-2.6-1s-2.6-.3-4.8-.3h-11.8v12h0l.1.1Z"></path>
        <path d="M602.51,320.57v26.8c0,.8.1,1.4.4,1.8s.8.6,1.5.8v.8h-8.1v-.8c.8-.2,1.3-.5,1.5-.8s.4-.9.4-1.8v-26.8h-11c-.8,0-1.4.1-1.8.4s-.6.8-.8,1.5h-.8v-7.1h.8c.2.8.5,1.3.8,1.5s.9.4,1.8.4h26.2c.8,0,1.4-.1,1.8-.4s.6-.8.8-1.5h.8v7.1h-.8c-.2-.8-.5-1.3-.8-1.5s-.9-.4-1.8-.4h-10.9Z"></path>
        <path d="M649.71,316.37c6,0,10.8,1.6,14.5,4.7,3.9,3.3,5.8,7.7,5.8,13.1s-1,6.5-2.9,9.3c-3.6,5.3-9.4,8-17.4,8s-10.7-1.6-14.4-4.7c-3.9-3.3-5.8-7.6-5.8-12.8s1-6.7,2.9-9.5c2-3,4.9-5.2,8.5-6.5,2.5-.9,5.4-1.4,8.8-1.5v-.1ZM649.71,319.87c-4.9,0-8.8,1.5-11.8,4.5-2.6,2.6-3.9,5.8-3.9,9.5s1.3,6.9,3.9,9.5c3,3,6.9,4.5,11.9,4.5s8.9-1.5,11.9-4.5c2.6-2.6,3.9-5.7,3.9-9.4s-1.3-7.2-3.9-9.7c-3-3-7-4.5-11.9-4.5l-.1.1Z"></path>
        <path d="M708.91,323.07l-8.2,22.9c-.4,1.1-.6,1.8-.6,2.1,0,.9.6,1.4,1.7,1.7v.8h-9.4v-.8c1.1-.2,1.7-.7,1.7-1.6s-.2-1.3-.5-2.3l-9.2-24.8c-.4-1.1-.8-1.9-1.2-2.3s-1-.7-1.8-1v-.8h8.8v.8c-1.1.3-1.7.8-1.7,1.6s.1.8.5,1.7l8.6,23.7,8.4-23.7c.3-.8.4-1.3.4-1.6,0-.8-.5-1.3-1.6-1.7v-.8h9.1v.8c-1.2.3-1.7.8-1.7,1.6s.1,1,.4,1.7l8.6,23.7,8.3-23.7c.2-.6.3-1.1.3-1.5,0-.9-.6-1.5-1.9-1.8v-.8h8.7v.8c-.9.2-1.5.5-2,1s-.9,1.2-1.3,2.3l-9,25.3c-.3.8-.4,1.3-.4,1.7,0,1,.6,1.6,1.7,1.7v.8h-9.3v-.8c1.1-.2,1.6-.7,1.6-1.6s-.2-1.2-.6-2.3l-8.3-22.9-.1.1Z"></path>
        <path d="M771.01,341.27h-17.6l-2.5,5.6c-.3.7-.5,1.2-.5,1.6,0,.7.5,1.2,1.6,1.4v.8h-8.3v-.8c.8-.1,1.4-.5,1.9-.9.5-.5,1-1.4,1.6-2.8l11.1-24.2c.6-1.3.9-2.3.9-2.8s-.5-1.1-1.5-1.3v-.8h9.8v.8c-1,.2-1.5.6-1.5,1.3s.4,1.5,1.2,3.2l10.7,23.3c.7,1.5,1.3,2.6,1.9,3.2s1.2.9,2,1.1v.8h-8.7v-.8c.9-.2,1.4-.5,1.4-1s-.2-.9-.7-2l-2.6-5.6-.2-.1ZM769.61,337.97l-7.3-16.5-7.4,16.5h14.8-.1Z"></path>
        <path d="M801.31,335.47v11.8c0,.8.1,1.4.4,1.8s.8.6,1.5.8v.8h-8.1v-.8c.8-.2,1.3-.5,1.5-.8s.4-.9.4-1.8v-26.8c0-.8-.1-1.4-.4-1.8s-.8-.6-1.5-.8v-.8h20c2.3,0,4.1.2,5.5.5s2.7.9,3.7,1.6c2.3,1.6,3.5,4,3.5,7.2s-.8,4.6-2.4,6.1-4,2.4-7.1,2.7l8.4,13.4c.3.5.6.8.9.9.3.2.8.3,1.5.4v.8h-8.3v-.8c.8-.2,1.2-.4,1.2-.7s-.2-.7-.7-1.4l-7.7-12.2h-12.2l-.1-.1ZM801.31,332.17h12.8c2.1,0,3.6,0,4.6-.2s1.9-.4,2.6-.8c1.6-.9,2.4-2.4,2.4-4.6s-.7-3.7-2.2-4.7c-1.4-1-3.7-1.5-6.9-1.5h-13.3v11.8h0Z"></path>
        <path d="M846.41,347.27v-26.8c0-.8-.1-1.4-.4-1.8s-.8-.6-1.5-.8v-.8h17c4.5,0,7.9.5,10.1,1.6,2.8,1.3,4.9,3.6,6.5,6.7,1.4,2.7,2,5.5,2,8.6s-.9,6.8-2.7,9.8c-1.6,2.6-3.5,4.4-5.9,5.5s-5.7,1.6-10,1.6h-17v-.8c.8-.2,1.3-.5,1.5-.8s.4-.9.4-1.8v-.2ZM850.61,347.47h10.5c4,0,6.9-.5,8.7-1.6,2-1.2,3.6-3,4.6-5.6.7-1.9,1.1-4,1.1-6.3,0-4.1-1.1-7.4-3.2-9.8-1.2-1.3-2.6-2.3-4.3-2.9s-4-.8-6.9-.8h-10.5v27.1h0v-.1Z"></path>
        <path d="M928.41,318.87l-3.3,6.5-.7-.4c.1-.6.1-1,.1-1.2,0-.5-.6-1.1-2-1.7-2.8-1.5-6.1-2.2-10.1-2.2s-5.9.6-8.1,1.8c-2.2,1.2-3.3,2.9-3.3,5s.3,1.8.8,2.6,1.3,1.3,2.3,1.6,2,.5,3.1.6,3.5.2,7.1.4c3,.1,5.3.3,6.9.6s2.9.7,4,1.3c1.2.7,2.1,1.6,2.8,2.9s1,2.6,1,4.1c0,3.1-1.3,5.6-3.8,7.4-3,2.2-7.1,3.3-12.1,3.3s-5.1-.4-7.8-1.1c-2.7-.8-5.3-1.8-7.6-3.1-.3-.2-.6-.3-.7-.3-.3,0-.7.4-1.3,1.1l-.7-.5,3.8-6.4.7.4c0,.2-.1.4-.1.5-.1.3-.1.6-.1.8,0,.6,1,1.4,3.1,2.5,3.4,1.8,7,2.7,10.7,2.7s6.2-.6,8.4-1.7c1.1-.6,1.9-1.3,2.6-2.3s1-1.9,1-3-.3-1.8-.8-2.6-1.2-1.3-2.1-1.6c-.8-.3-1.7-.5-2.7-.6s-2.9-.2-5.7-.3c-3.3-.1-5.7-.3-7.1-.5s-2.8-.5-4-1c-1.6-.6-2.9-1.5-3.9-2.8s-1.5-2.9-1.5-4.7c0-3.2,1.5-5.8,4.4-7.6,3-1.9,6.8-2.8,11.4-2.8s8.4.9,12.7,2.8c.6.3,1,.4,1.1.4.3,0,.7-.4,1.1-1.1l.8.4-.4-.2Z"></path>
        <path d="M971.81,347.27v-26.8c0-.8-.1-1.4-.4-1.8s-.8-.6-1.5-.8v-.8h17c4.5,0,7.9.5,10.1,1.6,2.8,1.3,4.9,3.6,6.5,6.7,1.4,2.7,2,5.5,2,8.6s-.9,6.8-2.7,9.8c-1.6,2.6-3.5,4.4-5.9,5.5s-5.7,1.6-10,1.6h-17v-.8c.8-.2,1.3-.5,1.5-.8s.4-.9.4-1.8v-.2ZM976.11,347.47h10.5c4,0,6.9-.5,8.7-1.6,2-1.2,3.6-3,4.6-5.6.7-1.9,1.1-4,1.1-6.3,0-4.1-1.1-7.4-3.2-9.8-1.2-1.3-2.6-2.3-4.3-2.9-1.7-.6-4-.8-6.9-.8h-10.5v27.1h0v-.1Z"></path>
        <path d="M1023.91,347.27v-26.8c0-.8-.1-1.4-.4-1.8s-.8-.6-1.5-.8v-.8h8.1v.8c-.8.2-1.3.5-1.5.8s-.4.9-.4,1.8v26.8c0,.8.1,1.4.4,1.8s.8.6,1.5.8v.8h-8.1v-.8c.8-.2,1.3-.5,1.5-.8s.4-.9.4-1.8Z"></path>
        <path d="M1083.51,320.27l-4.1,6.6-.7-.4c.2-.7.3-1.2.3-1.4,0-.5-1-1.3-2.9-2.4-3.1-1.7-6.3-2.6-9.8-2.6s-7.8,1.2-10.6,3.7c-3.1,2.7-4.7,6.2-4.7,10.5s1.4,7.4,4.3,10c2.8,2.6,6.5,3.9,11.2,3.9s4.5-.3,6.6-1,3.9-1.6,5.3-2.9v-6.2h-7.6c-.8,0-1.4.1-1.8.4s-.6.8-.8,1.5h-.8v-7.1h.8c.2.8.4,1.3.8,1.5.3.3.9.4,1.8.4h13.2v.8c-.8.2-1.3.4-1.5.8s-.4.9-.4,1.8v3.5c0,.8.1,1.4.4,1.8s.8.6,1.5.8v.7c-5.2,4.5-11.2,6.7-18.1,6.7s-9.9-1.5-13.4-4.4c-1.9-1.6-3.3-3.5-4.4-5.7-1.1-2.4-1.7-4.8-1.7-7.4,0-3.8,1.1-7.2,3.4-10.2,2-2.7,4.7-4.7,8.1-5.9,2.5-.9,5.2-1.4,8.1-1.4s4.7.3,6.8.9c2,.6,4.5,1.7,7.4,3.2.5.2.8.4,1,.4s.7-.4,1.4-1.2l.7.5.2-.2Z"></path>
        <path d="M1102.31,347.27v-26.8c0-.8-.1-1.4-.4-1.8s-.8-.6-1.5-.8v-.8h8.1v.8c-.8.2-1.3.5-1.5.8s-.4.9-.4,1.8v26.8c0,.8.1,1.4.4,1.8s.8.6,1.5.8v.8h-8.1v-.8c.8-.2,1.3-.5,1.5-.8s.4-.9.4-1.8Z"></path>
        <path d="M1141.31,320.57v26.8c0,.8.1,1.4.4,1.8s.8.6,1.5.8v.8h-8.1v-.8c.8-.2,1.3-.5,1.5-.8s.4-.9.4-1.8v-26.8h-11c-.8,0-1.4.1-1.8.4s-.6.8-.8,1.5h-.8v-7.1h.8c.2.8.5,1.3.8,1.5s.9.4,1.8.4h26.2c.8,0,1.4-.1,1.8-.4s.6-.8.8-1.5h.8v7.1h-.8c-.2-.8-.5-1.3-.8-1.5-.4-.3-.9-.4-1.8-.4h-11,.1Z"></path>
        <path d="M1171.71,347.27v-26.8c0-.8-.1-1.4-.4-1.8s-.8-.6-1.5-.8v-.8h8.1v.8c-.8.2-1.3.5-1.5.8s-.4.9-.4,1.8v26.8c0,.8.1,1.4.4,1.8s.8.6,1.5.8v.8h-8.1v-.8c.8-.2,1.3-.5,1.5-.8s.4-.9.4-1.8Z"></path>
        <path d="M1222.91,317.07v.5l-22.8,29.8h19.5c.8,0,1.4-.1,1.8-.4s.6-.8.8-1.5h.8v7.1h-.8c-.2-.8-.5-1.3-.8-1.5s-.9-.4-1.8-.4h-26.7v-.7l23-29.7h-19.3c-.8,0-1.4.1-1.8.4s-.6.8-.8,1.5h-.8v-7.1h.8c.2.8.5,1.3.8,1.5s.9.4,1.8.4h26.3v.1Z"></path>
        <path d="M1261.81,341.27h-17.6l-2.5,5.6c-.3.7-.5,1.2-.5,1.6,0,.7.5,1.2,1.6,1.4v.8h-8.3v-.8c.8-.1,1.4-.5,1.9-.9.5-.5,1-1.4,1.6-2.8l11.1-24.2c.6-1.3.9-2.3.9-2.8s-.5-1.1-1.5-1.3v-.8h9.8v.8c-1,.2-1.5.6-1.5,1.3s.4,1.5,1.2,3.2l10.7,23.3c.7,1.5,1.3,2.6,1.9,3.2s1.2.9,2,1.1v.8h-8.7v-.8c.9-.2,1.4-.5,1.4-1s-.2-.9-.7-2l-2.6-5.6-.2-.1ZM1260.41,337.97l-7.3-16.5-7.4,16.5h14.8-.1Z"></path>
        <path d="M1301.41,320.57v26.8c0,.8.1,1.4.4,1.8s.8.6,1.5.8v.8h-8.1v-.8c.8-.2,1.3-.5,1.5-.8s.4-.9.4-1.8v-26.8h-11c-.8,0-1.4.1-1.8.4s-.6.8-.8,1.5h-.8v-7.1h.8c.2.8.5,1.3.8,1.5s.9.4,1.8.4h26.2c.8,0,1.4-.1,1.8-.4s.6-.8.8-1.5h.8v7.1h-.8c-.2-.8-.5-1.3-.8-1.5-.4-.3-.9-.4-1.8-.4h-11,.1Z"></path>
        <path d="M1331.81,347.27v-26.8c0-.8-.1-1.4-.4-1.8s-.8-.6-1.5-.8v-.8h8.1v.8c-.8.2-1.3.5-1.5.8s-.4.9-.4,1.8v26.8c0,.8.1,1.4.4,1.8s.8.6,1.5.8v.8h-8.1v-.8c.8-.2,1.3-.5,1.5-.8s.4-.9.4-1.8Z"></path>
        <path d="M1374.71,316.37c6,0,10.8,1.6,14.5,4.7,3.9,3.3,5.8,7.7,5.8,13.1s-1,6.5-2.9,9.3c-3.6,5.3-9.4,8-17.4,8s-10.7-1.6-14.4-4.7c-3.9-3.3-5.8-7.6-5.8-12.8s1-6.7,2.9-9.5c2-3,4.9-5.2,8.5-6.5,2.5-.9,5.4-1.4,8.8-1.5v-.1ZM1374.71,319.87c-4.9,0-8.8,1.5-11.8,4.5-2.6,2.6-3.9,5.8-3.9,9.5s1.3,6.9,3.9,9.5c3,3,6.9,4.5,11.9,4.5s8.9-1.5,11.9-4.5c2.6-2.6,3.9-5.7,3.9-9.4s-1.3-7.2-3.9-9.7c-3-3-7-4.5-11.9-4.5l-.1.1Z"></path>
        <path d="M1416.91,322.37v25c0,.8.1,1.4.4,1.8s.8.6,1.5.8v.8h-7.4v-.8c.8-.2,1.3-.5,1.5-.8s.4-.9.4-1.8v-26.8c0-.8-.1-1.4-.4-1.8s-.8-.6-1.5-.8v-.8h10.9v.8c-1,.3-1.6.9-1.6,1.6s.4,1.3,1.1,2.2l19.8,22.2v-23.3c0-.8-.1-1.4-.4-1.8s-.8-.6-1.5-.8v-.8h7.4v.8c-.8.2-1.3.5-1.5.8s-.4.9-.4,1.8v26.8c0,.8.1,1.4.4,1.8.2.4.8.6,1.5.8v.8h-8.8v-.8c1-.3,1.6-.7,1.6-1.2s-.5-1.2-1.4-2.3l-21.7-24.1.1-.1Z"></path>
      </g>
    </g>
  </g>
</svg>
